<svg id="GitLogoCotl" xmlns="http://www.w3.org/2000/svg" width="32" height="32" viewBox="0 0 2000 2000">
  <defs>
    <style>
      .cls-1, .cls-2 {
        fill: #fff;
      }

      .cls-2 {
        fill-rule: evenodd;
      }
    </style>
  </defs>
  <circle cx="1002.014" cy="1002.014" r="1002.046"/>
  <ellipse class="cls-1" cx="1014" cy="2168" rx="376" ry="826"/>
  <path class="cls-2" d="M1013.5,552.789c53.57,0,97,68.373,97,152.715s-43.43,152.715-97,152.715-97-68.373-97-152.715S959.93,552.789,1013.5,552.789Zm0,0c53.57,0,97,68.373,97,152.715s-43.43,152.715-97,152.715-97-68.373-97-152.715S959.93,552.789,1013.5,552.789Zm0,0c53.57,0,97,68.373,97,152.715s-43.43,152.715-97,152.715-97-68.373-97-152.715S959.93,552.789,1013.5,552.789Zm0,0c53.57,0,97,68.373,97,152.715s-43.43,152.715-97,152.715-97-68.373-97-152.715S959.93,552.789,1013.5,552.789Z"/>
  <path id="Ellipse_2_copy" data-name="Ellipse 2 copy" class="cls-2" d="M899.815,655A96.815,96.815,0,1,1,803,751.815,96.815,96.815,0,0,1,899.815,655Zm0,0A96.815,96.815,0,1,1,803,751.815,96.815,96.815,0,0,1,899.815,655Zm0,0A96.815,96.815,0,1,1,803,751.815,96.815,96.815,0,0,1,899.815,655Zm0,0A96.815,96.815,0,1,1,803,751.815,96.815,96.815,0,0,1,899.815,655Z"/>
  <path id="Ellipse_2_copy-2" data-name="Ellipse 2 copy" class="cls-2" d="M1130.81,655A96.815,96.815,0,1,1,1034,751.815,96.819,96.819,0,0,1,1130.81,655Zm0,0A96.815,96.815,0,1,1,1034,751.815,96.819,96.819,0,0,1,1130.81,655Zm0,0A96.815,96.815,0,1,1,1034,751.815,96.819,96.819,0,0,1,1130.81,655Zm0,0A96.815,96.815,0,1,1,1034,751.815,96.819,96.819,0,0,1,1130.81,655Z"/>
  <rect class="cls-1" x="589" y="774" width="833" height="598" rx="72" ry="72"/>
  <path class="cls-2" d="M868.218,1342H1159.78a56.67,56.67,0,1,1,0,113.34H868.218A56.67,56.67,0,1,1,868.218,1342Z"/>
  <path id="clipThis" class="cls-2" d="M927,432h174V779H927V432Zm87.5,111L927.005,432.021l175,0.014Z"/>
  <ellipse class="cls-1" cx="1408.5" cy="1255.5" rx="67.5" ry="113.5"/>
  <ellipse class="cls-1" cx="1406.5" cy="1037.5" rx="45.5" ry="200.5"/>
  <ellipse class="cls-1" cx="1288.5" cy="1332.5" rx="111.5" ry="66.5"/>
  <ellipse class="cls-1" cx="583" cy="1205" rx="69" ry="141"/>
  <ellipse class="cls-1" cx="595" cy="946" rx="45" ry="163"/>
  <ellipse class="cls-1" cx="710" cy="782" rx="109" ry="39"/>
  <ellipse class="cls-1" cx="1289.5" cy="785.5" rx="105.5" ry="33.5"/>
</svg>
